{
	"asset":{
		"generator":"Khronos glTF Blender I/O v5.1.18",
		"version":"2.0"
	},
	"extensionsUsed":[
		"EXT_texture_webp"
	],
	"scene":0,
	"scenes":[
		{
			"name":"Scene",
			"nodes":[
				0
			]
		}
	],
	"nodes":[
		{
			"mesh":0,
			"name":"Icon"
		}
	],
	"materials":[
		{
			"doubleSided":true,
			"name":"Material",
			"normalTexture":{
				"index":0
			},
			"pbrMetallicRoughness":{
				"baseColorTexture":{
					"index":1
				},
				"metallicFactor":0,
				"metallicRoughnessTexture":{
					"index":2
				}
			}
		}
	],
	"meshes":[
		{
			"name":"Curve.001",
			"primitives":[
				{
					"attributes":{
						"POSITION":0,
						"NORMAL":1,
						"TEXCOORD_0":2,
						"TANGENT":3
					},
					"indices":4,
					"material":0
				}
			]
		}
	],
	"textures":[
		{
			"extensions":{
				"EXT_texture_webp":{
					"source":0
				}
			},
			"sampler":0,
			"source":1
		},
		{
			"extensions":{
				"EXT_texture_webp":{
					"source":2
				}
			},
			"sampler":0,
			"source":3
		},
		{
			"extensions":{
				"EXT_texture_webp":{
					"source":4
				}
			},
			"sampler":0,
			"source":5
		}
	],
	"images":[
		{
			"mimeType":"image/webp",
			"name":"Normal_V5",
			"uri":"textures/Normal_V5.webp"
		},
		{
			"mimeType":"image/png",
			"name":"Normal_V5",
			"uri":"textures/Normal_V5.png"
		},
		{
			"mimeType":"image/webp",
			"name":"Diffuse_V3",
			"uri":"textures/Diffuse_V3.webp"
		},
		{
			"mimeType":"image/png",
			"name":"Diffuse_V3",
			"uri":"textures/Diffuse_V3.png"
		},
		{
			"mimeType":"image/webp",
			"name":"Roughness_V3",
			"uri":"textures/Roughness_V3.webp"
		},
		{
			"mimeType":"image/png",
			"name":"Roughness_V3",
			"uri":"textures/Roughness_V3.png"
		}
	],
	"accessors":[
		{
			"bufferView":0,
			"componentType":5126,
			"count":2540,
			"max":[
				29.696443557739258,
				78.62228393554688,
				89.53640747070312
			],
			"min":[
				-46.66746520996094,
				-76.97254943847656,
				-91.35144805908203
			],
			"type":"VEC3"
		},
		{
			"bufferView":1,
			"componentType":5126,
			"count":2540,
			"type":"VEC3"
		},
		{
			"bufferView":2,
			"componentType":5126,
			"count":2540,
			"type":"VEC2"
		},
		{
			"bufferView":3,
			"componentType":5126,
			"count":2540,
			"type":"VEC4"
		},
		{
			"bufferView":4,
			"componentType":5123,
			"count":9252,
			"type":"SCALAR"
		}
	],
	"bufferViews":[
		{
			"buffer":0,
			"byteLength":30480,
			"byteOffset":0,
			"target":34962
		},
		{
			"buffer":0,
			"byteLength":30480,
			"byteOffset":30480,
			"target":34962
		},
		{
			"buffer":0,
			"byteLength":20320,
			"byteOffset":60960,
			"target":34962
		},
		{
			"buffer":0,
			"byteLength":40640,
			"byteOffset":81280,
			"target":34962
		},
		{
			"buffer":0,
			"byteLength":18504,
			"byteOffset":121920,
			"target":34963
		}
	],
	"samplers":[
		{
			"magFilter":9729,
			"minFilter":9987
		}
	],
	"buffers":[
		{
			"byteLength":140424,
			"uri":"phone.bin"
		}
	]
}
